<svg width="55" height="55" viewBox="0 0 55 55" fill="none" xmlns="http://www.w3.org/2000/svg">
<g filter="url(#filter0_d_33_58)">
<circle cx="27.5" cy="23.5" r="22.5" stroke="url(#paint0_linear_33_58)" stroke-width="2"/>
<path d="M24.7084 23.44C24.7084 23.48 24.695 23.5467 24.6684 23.64C24.655 23.72 24.635 23.8067 24.6084 23.9C24.5817 23.9933 24.555 24.08 24.5284 24.16C24.515 24.24 24.5084 24.3 24.5084 24.34C24.0417 24.38 23.735 24.42 23.5884 24.46C23.455 24.4867 23.375 24.5 23.3484 24.5H22.0084C21.8084 24.5 21.655 24.5 21.5484 24.5C21.4417 24.4867 21.355 24.48 21.2884 24.48C21.235 24.48 21.195 24.4867 21.1684 24.5C21.1417 24.5 21.1017 24.5067 21.0484 24.52L20.6284 24.78L20.0084 24.5C19.995 24.4333 19.9284 24.36 19.8084 24.28C19.7017 24.2 19.6284 24.1067 19.5884 24L20.2284 23.12C20.495 23.12 20.635 23.1267 20.6484 23.14C20.675 23.14 20.6817 23.1333 20.6684 23.12C20.6684 23.1067 20.7084 23.0933 20.7884 23.08C20.8684 23.0533 20.9617 23.0333 21.0684 23.02L21.3684 22.96C21.4617 22.9467 21.895 22.9667 22.6684 23.02C22.6817 23.02 22.775 23.0533 22.9484 23.12C23.015 23.1467 23.1817 23.14 23.4484 23.1C23.7284 23.0467 24.0417 23.02 24.3884 23.02L24.7084 23.44ZM24.7884 28.88C24.7617 28.96 24.7417 29.0533 24.7284 29.16C24.7284 29.2667 24.7417 29.34 24.7684 29.38C24.7417 29.4067 24.6617 29.44 24.5284 29.48C24.395 29.52 24.2084 29.5867 23.9684 29.68C23.715 29.7467 23.475 29.76 23.2484 29.72C23.0217 29.68 22.8017 29.6867 22.5884 29.74C21.935 29.74 21.2617 29.84 20.5684 30.04C20.3817 30.0933 20.2217 30.14 20.0884 30.18C19.955 30.22 19.8417 30.2533 19.7484 30.28C19.695 30.3067 19.6417 30.3267 19.5884 30.34C19.5484 30.34 19.5084 30.3467 19.4684 30.36L17.9084 30.42C17.7884 30.46 17.6617 30.4733 17.5284 30.46C17.395 30.4333 17.2617 30.4067 17.1284 30.38C16.995 30.34 16.875 30.3 16.7684 30.26C16.6617 30.22 16.575 30.2 16.5084 30.2C16.4417 30.2 16.3284 30.2067 16.1684 30.22C16.0084 30.22 15.8617 30.22 15.7284 30.22C15.595 30.1267 15.475 30.0333 15.3684 29.94C15.2617 29.8333 15.255 29.6533 15.3484 29.4C15.375 29.2667 15.4217 29.1333 15.4884 29C15.5684 28.8533 15.595 28.7067 15.5684 28.56C15.555 28.5067 15.5217 28.42 15.4684 28.3C15.4284 28.18 15.395 28.0533 15.3684 27.92C15.355 27.7867 15.355 27.6533 15.3684 27.52C15.395 27.3867 15.4684 27.2733 15.5884 27.18C15.695 27.0067 15.7417 26.8467 15.7284 26.7C15.715 26.54 15.655 26.3733 15.5484 26.2C15.6284 26.1067 15.675 26 15.6884 25.88C15.715 25.7467 15.7217 25.62 15.7084 25.5C15.695 25.38 15.6684 25.2733 15.6284 25.18C15.6017 25.0867 15.575 25.02 15.5484 24.98C15.5884 24.7933 15.6284 24.5467 15.6684 24.24C15.7084 23.92 15.7417 23.6 15.7684 23.28C15.8084 22.9467 15.835 22.64 15.8484 22.36C15.8617 22.08 15.8617 21.8733 15.8484 21.74C15.835 21.5667 15.8484 21.3867 15.8884 21.2C15.9284 21.0133 15.975 20.8267 16.0284 20.64C16.0817 20.44 16.1217 20.2467 16.1484 20.06C16.175 19.8733 16.1684 19.7 16.1284 19.54L16.1684 19.42C16.195 19.3933 16.1484 19.1867 16.0284 18.8L16.3484 18.1H16.3684C16.635 18.0867 16.9084 18.0733 17.1884 18.06C17.4684 18.0467 17.7217 18.0333 17.9484 18.02C18.1884 18.0067 18.3817 18 18.5284 18C18.6884 17.9867 18.775 17.98 18.7884 17.98H21.5484C21.6417 17.98 21.7617 18.0267 21.9084 18.12C22.0684 18.2 22.6017 18.24 23.5084 18.24C23.5217 18.2933 23.535 18.3467 23.5484 18.4C23.5617 18.4533 23.575 18.5067 23.5884 18.56C23.6284 18.8 23.675 18.9867 23.7284 19.12L23.6084 19.32C23.4084 19.3333 23.255 19.34 23.1484 19.34C23.0417 19.34 22.9617 19.34 22.9084 19.34C22.8684 19.3267 22.8417 19.32 22.8284 19.32C22.815 19.3067 22.8017 19.3 22.7884 19.3L21.2284 19.1C20.8417 19.02 20.3617 19.0667 19.7884 19.24C19.535 19.3067 19.3284 19.3267 19.1684 19.3C19.0084 19.26 18.9017 19.2533 18.8484 19.28C18.6884 19.2267 18.555 19.2267 18.4484 19.28C18.3417 19.3333 18.3084 19.4333 18.3484 19.58C18.3884 19.7133 18.435 19.7933 18.4884 19.82C18.5417 19.8467 18.5817 19.9 18.6084 19.98C18.5817 20.02 18.5884 20.08 18.6284 20.16C18.6817 20.2267 18.7417 20.2933 18.8084 20.36C18.8884 20.44 18.9684 20.4933 19.0484 20.52C19.1284 20.5333 19.1684 20.5467 19.1684 20.56C19.1684 20.5867 19.135 20.7267 19.0684 20.98C19.0017 21.22 18.9484 21.5133 18.9084 21.86C18.8684 22.2067 18.855 22.58 18.8684 22.98C18.895 23.38 18.995 23.7533 19.1684 24.1C19.1017 24.2467 19.0417 24.5267 18.9884 24.94C18.935 25.34 18.8884 25.7533 18.8484 26.18C18.8217 26.6067 18.8017 26.9933 18.7884 27.34C18.775 27.6733 18.7684 27.8533 18.7684 27.88C18.755 27.88 18.735 27.9067 18.7084 27.96C18.695 28 18.675 28.0467 18.6484 28.1C18.6217 28.1533 18.5884 28.2 18.5484 28.24C18.5084 28.2667 18.4617 28.2667 18.4084 28.24V28.42C18.4084 28.42 18.4484 28.42 18.5284 28.42H18.6084C18.595 28.4867 18.5884 28.58 18.5884 28.7C18.5884 28.82 18.5817 28.92 18.5684 29L20.0884 28.8C20.355 28.8267 20.6617 28.8333 21.0084 28.82C21.3684 28.8067 21.7684 28.76 22.2084 28.68C22.6484 28.6133 23.0084 28.5933 23.2884 28.62C23.5684 28.6467 23.775 28.6 23.9084 28.48L24.4084 28.46L24.7884 28.88ZM32.7146 18.54C32.7146 18.6067 32.7079 18.6533 32.6946 18.68C32.6946 18.7067 32.6879 18.7333 32.6746 18.76C32.7013 18.8267 32.7146 18.8867 32.7146 18.94C32.7146 18.98 32.7079 19.02 32.6946 19.06C32.6946 19.1 32.6946 19.1533 32.6946 19.22C32.6946 19.2733 32.7079 19.3467 32.7346 19.44C32.8013 19.6267 32.8679 19.7533 32.9346 19.82C33.0013 19.8733 33.0813 19.9333 33.1746 20C33.0413 20.12 32.9746 20.2267 32.9746 20.32C32.9746 20.4 33.0013 20.4667 33.0546 20.52C33.1079 20.5733 33.1879 20.62 33.2946 20.66C33.3213 20.6867 33.3813 20.74 33.4746 20.82C33.5679 20.8867 33.6613 20.9067 33.7546 20.88L35.0746 23.04L37.3546 25.96C37.5146 25.9733 37.6013 25.8867 37.6146 25.7C37.6413 25.5 37.6346 25.2867 37.5946 25.06C37.5679 24.82 37.5279 24.6067 37.4746 24.42C37.4213 24.2333 37.3946 24.1533 37.3946 24.18C37.3546 23.7933 37.3146 23.4933 37.2746 23.28C37.2346 23.0667 37.2479 22.8333 37.3146 22.58C37.3813 22.5133 37.3946 22.38 37.3546 22.18C37.3146 21.9667 37.2613 21.7533 37.1946 21.54C37.1679 21.42 37.1546 21.2867 37.1546 21.14C37.1546 20.9933 37.1613 20.8467 37.1746 20.7C37.1879 20.5533 37.1946 20.42 37.1946 20.3C37.2079 20.18 37.2079 20.0867 37.1946 20.02C37.1946 19.8867 37.1813 19.76 37.1546 19.64C37.1279 19.52 37.1346 19.4067 37.1746 19.3C37.1879 19.2467 37.1946 19.2133 37.1946 19.2C37.2079 19.1733 37.2146 19.1467 37.2146 19.12C37.2146 19.0933 37.2079 19.0533 37.1946 19C37.1946 18.9467 37.1946 18.8667 37.1946 18.76L37.4746 18.48C37.5146 18.4267 37.5813 18.3867 37.6746 18.36C37.7679 18.3333 37.8613 18.32 37.9546 18.32C38.0613 18.3067 38.1546 18.3 38.2346 18.3C38.3279 18.3 38.3946 18.3067 38.4346 18.32C38.5279 18.3467 38.6346 18.3667 38.7546 18.38C38.8879 18.38 39.0013 18.3733 39.0946 18.36L39.4546 18.46L39.6746 19.44C39.4879 19.64 39.3813 19.8333 39.3546 20.02C39.3279 20.2067 39.3213 20.3933 39.3346 20.58C39.3346 20.9 39.3413 21.14 39.3546 21.3C39.3813 21.4467 39.4079 21.5533 39.4346 21.62C39.4746 21.6867 39.5079 21.7267 39.5346 21.74C39.5746 21.7533 39.6079 21.7733 39.6346 21.8C39.6079 21.9067 39.5613 22.0133 39.4946 22.12C39.4413 22.2133 39.3746 22.3133 39.2946 22.42C39.2546 22.4733 39.2346 22.54 39.2346 22.62C39.2479 22.6867 39.2746 22.7533 39.3146 22.82C39.3546 22.8867 39.4013 22.9467 39.4546 23C39.5079 23.04 39.5613 23.0533 39.6146 23.04C39.6413 23.08 39.6413 23.1933 39.6146 23.38C39.5879 23.5533 39.6146 23.92 39.6946 24.48C39.7213 24.76 39.7146 25 39.6746 25.2C39.6479 25.3867 39.6146 25.5533 39.5746 25.7C39.5346 25.8333 39.4946 25.96 39.4546 26.08C39.4279 26.1867 39.4213 26.3 39.4346 26.42C39.4479 26.42 39.4613 26.48 39.4746 26.6C39.4879 26.72 39.5013 26.8533 39.5146 27C39.5279 27.1333 39.5413 27.26 39.5546 27.38C39.5813 27.4867 39.6079 27.5333 39.6346 27.52C39.6079 28 39.6146 28.42 39.6546 28.78C39.7079 29.14 39.7146 29.34 39.6746 29.38L39.7546 29.64L38.9346 29.94C38.8546 29.94 38.7746 29.94 38.6946 29.94C38.6146 29.94 38.5413 29.9467 38.4746 29.96C38.3413 29.9733 38.2079 29.9867 38.0746 30C37.9413 30.0133 37.8346 30.0267 37.7546 30.04L37.3546 29.82C37.3679 29.6867 37.3946 29.5933 37.4346 29.54C37.5279 29.4867 37.5613 29.2867 37.5346 28.94C37.5213 28.82 37.4879 28.7467 37.4346 28.72C37.3946 28.6933 37.3546 28.6467 37.3146 28.58L34.4946 24.82C34.4546 24.78 34.4213 24.74 34.3946 24.7C34.3413 24.6333 34.2879 24.5133 34.2346 24.34C34.1813 24.1667 34.1013 23.9867 33.9946 23.8C33.9013 23.6 33.7413 23.4267 33.5146 23.28L33.3946 22.16C33.3546 21.96 33.1413 21.9133 32.7546 22.02C32.6879 22.0733 32.6479 22.1267 32.6346 22.18C32.6213 22.2333 32.6146 22.2867 32.6146 22.34C32.6279 22.3933 32.6413 22.4467 32.6546 22.5C32.6679 22.5533 32.6679 22.6 32.6546 22.64C32.6413 22.6933 32.6279 22.74 32.6146 22.78C32.6013 22.8067 32.5879 22.8533 32.5746 22.92C32.5746 22.9867 32.5679 23.0867 32.5546 23.22C32.5413 23.34 32.5279 23.52 32.5146 23.76C32.5013 24 32.4813 24.2467 32.4546 24.5C32.4413 24.74 32.4279 24.9733 32.4146 25.2C32.4146 25.4133 32.4279 25.6 32.4546 25.76C32.4946 25.92 32.5546 26.0267 32.6346 26.08C32.6346 26.24 32.5746 26.9 32.4546 28.06C32.4146 28.4867 32.3813 28.8467 32.3546 29.14C32.3413 29.42 32.3279 29.6467 32.3146 29.82L32.0546 30.14C31.8813 30.1667 31.6546 30.1933 31.3746 30.22C31.1079 30.2467 30.8346 30.2733 30.5546 30.3C30.2879 30.3267 30.0346 30.3467 29.7946 30.36C29.5679 30.3733 29.4079 30.38 29.3146 30.38C29.2346 30.38 29.1479 30.3533 29.0546 30.3C28.9613 30.2467 28.8813 30.1467 28.8146 30C28.8946 29.8933 28.9413 29.8467 28.9546 29.86C28.9679 29.86 28.9479 29.86 28.8946 29.86V27.66L29.1546 27.22L28.8546 26.48L28.8946 25.92C28.8946 25.8533 28.9079 25.7467 28.9346 25.6C28.9613 25.44 28.9879 25.2667 29.0146 25.08C29.0413 24.8933 29.0613 24.7067 29.0746 24.52C29.1013 24.32 29.1079 24.14 29.0946 23.98C29.0679 23.6733 29.0479 23.44 29.0346 23.28C29.0213 23.1067 29.0146 23.0067 29.0146 22.98C29.0146 22.9267 29.0479 22.8333 29.1146 22.7C29.1946 22.5533 29.2613 22.4333 29.3146 22.34C29.3546 22.2733 29.3679 22.2067 29.3546 22.14C29.3413 22.06 29.3413 21.9933 29.3546 21.94C29.3813 21.8867 29.4146 21.8467 29.4546 21.82C29.4946 21.78 29.5013 21.7933 29.4746 21.86C29.5546 21.9 29.5679 21.8 29.5146 21.56C29.4746 21.32 29.4479 21.0267 29.4346 20.68L29.4146 19.62C29.4013 19.5533 29.3879 19.4933 29.3746 19.44C29.3746 19.3867 29.3413 19.3067 29.2746 19.2C29.4613 19.1067 29.5679 19.02 29.5946 18.94C29.6213 18.86 29.6346 18.74 29.6346 18.58C29.7413 18.54 29.9079 18.5133 30.1346 18.5C30.3746 18.4733 30.6279 18.4533 30.8946 18.44C31.1613 18.4133 31.4213 18.3867 31.6746 18.36C31.9279 18.32 32.1346 18.2733 32.2946 18.22L32.7146 18.54Z" fill="white"/>
</g>
<defs>
<filter id="filter0_d_33_58" x="0" y="0" width="55" height="55" filterUnits="userSpaceOnUse" color-interpolation-filters="sRGB">
<feFlood flood-opacity="0" result="BackgroundImageFix"/>
<feColorMatrix in="SourceAlpha" type="matrix" values="0 0 0 0 0 0 0 0 0 0 0 0 0 0 0 0 0 0 127 0" result="hardAlpha"/>
<feOffset dy="4"/>
<feGaussianBlur stdDeviation="2"/>
<feComposite in2="hardAlpha" operator="out"/>
<feColorMatrix type="matrix" values="0 0 0 0 0 0 0 0 0 0 0 0 0 0 0 0 0 0 0.25 0"/>
<feBlend mode="normal" in2="BackgroundImageFix" result="effect1_dropShadow_33_58"/>
<feBlend mode="normal" in="SourceGraphic" in2="effect1_dropShadow_33_58" result="shape"/>
</filter>
<linearGradient id="paint0_linear_33_58" x1="27.5" y1="0" x2="27.5" y2="47" gradientUnits="userSpaceOnUse">
<stop stop-color="#FBE492"/>
<stop offset="1" stop-color="#958757"/>
</linearGradient>
</defs>
</svg>
