<svg width="22" height="35" viewBox="0 0 22 35" fill="none" xmlns="http://www.w3.org/2000/svg">
<g style="mix-blend-mode:luminosity" filter="url(#filter0_d_35_147)">
<path d="M12.9005 1.74373C13.0042 1.74373 13.0639 1.74809 13.0639 1.74809H15.341L15.3293 4.36365H13.0675C11.8227 4.36365 11.8515 5.42641 11.8515 5.42641V9.57294H16.2557L15.641 12.185H11.8371V25.2567H9.22389L9.22215 12.185H5.75048L5.7435 9.57294H9.22346V5.50837C9.22384 1.96428 12.1676 1.74373 12.9005 1.74373ZM12.9005 0C12.2735 0 11.0484 0.103778 9.88783 0.803004C8.78917 1.46387 7.47994 2.81739 7.47994 5.50796V7.8288H5.74389C5.28044 7.8288 4.83619 8.01364 4.50833 8.34148C4.34634 8.5041 4.21805 8.69709 4.13082 8.90939C4.04359 9.12169 3.99914 9.34912 4.00001 9.57864L4.00699 12.1907C4.01048 13.1511 4.79044 13.9283 5.75089 13.9283H7.47866L7.4804 25.2563C7.4804 26.2193 8.26126 27 9.2243 27H11.8376C12.8006 27 13.5815 26.2193 13.5815 25.2563V13.9283H15.6414C16.4153 13.9283 17.0967 13.4183 17.3147 12.6759L17.9294 10.0638C18.0842 9.53682 17.9813 8.96706 17.6517 8.52806C17.4895 8.31097 17.2789 8.13472 17.0367 8.01333C16.7944 7.89195 16.5271 7.82877 16.2561 7.82883H13.5958V6.10823L15.3297 6.10736C16.2893 6.10736 17.0692 5.33184 17.0736 4.3715L17.0853 1.84443C17.0871 1.81235 17.088 1.78022 17.088 1.74809C17.088 0.785131 16.3089 0.00438649 15.3458 0.00438649H13.1132C13.0631 0.00177093 12.9907 2.72454e-05 12.9005 0Z" fill="white"/>
</g>
<defs>
<filter id="filter0_d_35_147" x="0" y="0" width="22" height="35" filterUnits="userSpaceOnUse" color-interpolation-filters="sRGB">
<feFlood flood-opacity="0" result="BackgroundImageFix"/>
<feColorMatrix in="SourceAlpha" type="matrix" values="0 0 0 0 0 0 0 0 0 0 0 0 0 0 0 0 0 0 127 0" result="hardAlpha"/>
<feOffset dy="4"/>
<feGaussianBlur stdDeviation="2"/>
<feComposite in2="hardAlpha" operator="out"/>
<feColorMatrix type="matrix" values="0 0 0 0 0 0 0 0 0 0 0 0 0 0 0 0 0 0 0.25 0"/>
<feBlend mode="normal" in2="BackgroundImageFix" result="effect1_dropShadow_35_147"/>
<feBlend mode="normal" in="SourceGraphic" in2="effect1_dropShadow_35_147" result="shape"/>
</filter>
</defs>
</svg>
