<svg width="32" height="31" viewBox="0 0 32 31" fill="none" xmlns="http://www.w3.org/2000/svg">
<g style="mix-blend-mode:luminosity" filter="url(#filter0_d_35_149)">
<path d="M16 0C19.2663 0 19.6686 0.0226824 20.9467 0.0680473C22.2012 0.113412 23.0769 0.317554 23.858 0.612426C24.6627 0.907298 25.3254 1.2929 25.9882 1.92801C26.6509 2.56312 27.0533 3.19822 27.3609 3.96943C27.6686 4.71795 27.8817 5.5572 27.929 6.75937C27.9763 7.98422 28 8.36982 28 11.5C28 14.6302 27.9763 15.0158 27.929 16.2406C27.8817 17.4428 27.6686 18.2821 27.3609 19.0306C27.0533 19.8018 26.6509 20.4369 25.9882 21.072C25.3254 21.7071 24.6627 22.0927 23.858 22.3876C23.0769 22.6824 22.2012 22.8866 20.9467 22.932C19.6686 22.9773 19.2663 23 16 23C12.7337 23 12.3314 22.9773 11.0533 22.932C9.79882 22.8866 8.92308 22.6824 8.14201 22.3876C7.33728 22.0927 6.67456 21.7071 6.01183 21.072C5.34911 20.4369 4.94675 19.8018 4.63905 19.0306C4.33136 18.2821 4.11834 17.4428 4.07101 16.2406C4.02367 15.0158 4 14.6302 4 11.5C4 8.36982 4.02367 7.98422 4.07101 6.75937C4.11834 5.5572 4.33136 4.71795 4.63905 3.96943C4.94675 3.19822 5.34911 2.56312 6.01183 1.92801C6.67456 1.2929 7.33728 0.907298 8.14201 0.612426C8.92308 0.317554 9.79882 0.113412 11.0533 0.0680473C12.3314 0.0226824 12.7337 0 16 0ZM16 1.49704C12.5917 1.49704 12.1893 1.51972 10.8639 1.56509C9.63314 1.61045 8.94675 1.83728 8.49704 1.99606C7.33728 2.4497 6.55621 3.19822 6.08284 4.30966C5.91716 4.74063 5.68047 5.39842 5.63314 6.57791C5.5858 7.84813 5.56213 8.23373 5.56213 11.5C5.56213 14.7663 5.5858 15.1519 5.63314 16.4221C5.68047 17.6016 5.91716 18.2594 6.08284 18.6903C6.55621 19.8018 7.33728 20.5503 8.49704 21.0039C8.94675 21.1627 9.63314 21.3895 10.8639 21.4349C12.1893 21.4803 12.5917 21.503 16 21.503C19.4083 21.503 19.8107 21.4803 21.1361 21.4349C22.3669 21.3895 23.0533 21.1627 23.503 21.0039C24.6627 20.5503 25.4438 19.8018 25.9172 18.6903C26.0828 18.2594 26.3195 17.6016 26.3669 16.4221C26.4142 15.1519 26.4379 14.7663 26.4379 11.5C26.4379 8.23373 26.4142 7.84813 26.3669 6.57791C26.3195 5.39842 26.0828 4.74063 25.9172 4.30966C25.4438 3.19822 24.6627 2.4497 23.503 1.99606C23.0533 1.83728 22.3669 1.61045 21.1361 1.56509C19.8107 1.51972 19.4083 1.49704 16 1.49704ZM16 16.1045C18.6509 16.1045 20.8047 14.0404 20.8047 11.5C20.8047 8.95957 18.6509 6.89546 16 6.89546C13.3491 6.89546 11.1953 8.95957 11.1953 11.5C11.1953 14.0404 13.3491 16.1045 16 16.1045ZM16 5.60256C19.4083 5.60256 22.1538 8.23373 22.1538 11.5C22.1538 14.7663 19.4083 17.3974 16 17.3974C12.5917 17.3974 9.84615 14.7663 9.84615 11.5C9.84615 8.23373 12.5917 5.60256 16 5.60256ZM23.858 5.37574C23.858 6.14694 23.1953 6.73669 22.3905 6.73669C21.5858 6.73669 20.9704 6.14694 20.9704 5.37574C20.9704 4.60454 21.5858 3.96943 22.3905 3.96943C23.1953 3.96943 23.858 4.60454 23.858 5.37574Z" fill="white"/>
</g>
<defs>
<filter id="filter0_d_35_149" x="0" y="0" width="32" height="31" filterUnits="userSpaceOnUse" color-interpolation-filters="sRGB">
<feFlood flood-opacity="0" result="BackgroundImageFix"/>
<feColorMatrix in="SourceAlpha" type="matrix" values="0 0 0 0 0 0 0 0 0 0 0 0 0 0 0 0 0 0 127 0" result="hardAlpha"/>
<feOffset dy="4"/>
<feGaussianBlur stdDeviation="2"/>
<feComposite in2="hardAlpha" operator="out"/>
<feColorMatrix type="matrix" values="0 0 0 0 0 0 0 0 0 0 0 0 0 0 0 0 0 0 0.25 0"/>
<feBlend mode="normal" in2="BackgroundImageFix" result="effect1_dropShadow_35_149"/>
<feBlend mode="normal" in="SourceGraphic" in2="effect1_dropShadow_35_149" result="shape"/>
</filter>
</defs>
</svg>
