<svg width="38" height="35" viewBox="0 0 38 35" fill="none" xmlns="http://www.w3.org/2000/svg">
<g style="mix-blend-mode:luminosity" filter="url(#filter0_d_35_148)">
<path d="M33.2208 26.9944H27.1287C26.6978 26.9944 26.3495 26.6673 26.3495 26.2626V17.0483C26.3495 13.8881 24.614 13.8881 24.0413 13.8881C22.5006 13.8881 21.8454 15.0302 21.6328 15.5237C21.5325 15.7455 21.4852 16.1224 21.4852 16.6492V26.2682C21.4852 26.6729 21.137 27 20.7061 27H14.6081C14.4015 27 14.2007 26.9224 14.0532 26.7838C13.9056 26.6453 13.823 26.4567 13.8288 26.2626C13.8288 26.1074 13.9115 10.656 13.8288 9.07588C13.817 8.87629 13.8938 8.68225 14.0414 8.5381C14.189 8.39395 14.3897 8.31078 14.608 8.31078H20.7061C21.137 8.31078 21.4853 8.63786 21.4853 9.04258V9.47502C22.5124 8.61569 23.9941 7.90603 26.2019 7.90603C31.0838 7.90603 34 11.0772 34 16.3885V26.2626C34 26.6673 33.6517 26.9944 33.2208 26.9944ZM27.9079 25.5308L32.4475 25.5307V16.3884C32.4475 11.9254 30.1748 9.3696 26.2078 9.3696C23.5573 9.3696 22.2704 10.6115 21.4617 11.748C21.3672 12.0474 21.0661 12.2692 20.7119 12.2692H20.6707C20.3873 12.2692 20.1275 12.125 19.9918 11.8922C19.8855 11.7092 19.8619 11.4985 19.9328 11.3045V9.76882H15.405C15.4463 12.8236 15.405 22.7088 15.3932 25.5252H19.9268V16.6435C19.9268 15.9062 20.0095 15.3739 20.1866 14.9692C20.8713 13.3781 22.3117 12.4189 24.0355 12.4189C26.4912 12.4189 27.902 14.1044 27.902 17.0427V25.5308H27.908L27.9079 25.5308ZM11.2373 26.9943H5.13935C4.70841 26.9943 4.36015 26.6672 4.36015 26.2625V9.04252C4.36015 8.6378 4.70841 8.3107 5.13935 8.3107H11.2373C11.6683 8.3107 12.0165 8.6378 12.0165 9.04249V26.2625C12.0165 26.6672 11.6683 26.9943 11.2373 26.9943V26.9943ZM5.9186 25.5307H10.4581V9.77429H5.91863L5.9186 25.5307ZM8.19129 7.42361L8.14994 7.42358C5.74734 7.42358 4 5.86014 4 3.70903C4 1.56347 5.77686 0 8.23258 0C10.647 0 12.3707 1.51907 12.418 3.69239C12.418 5.86014 10.6411 7.42361 8.19129 7.42361ZM8.23258 1.46921C6.63281 1.46921 5.55845 2.37291 5.55845 3.71461C5.55845 5.03409 6.62104 5.95995 8.14997 5.95995H8.19126C9.78515 5.95995 10.8595 5.05625 10.8595 3.71458C10.83 2.35627 9.79695 1.46921 8.23258 1.46921Z" fill="white"/>
</g>
<defs>
<filter id="filter0_d_35_148" x="0" y="0" width="38" height="35" filterUnits="userSpaceOnUse" color-interpolation-filters="sRGB">
<feFlood flood-opacity="0" result="BackgroundImageFix"/>
<feColorMatrix in="SourceAlpha" type="matrix" values="0 0 0 0 0 0 0 0 0 0 0 0 0 0 0 0 0 0 127 0" result="hardAlpha"/>
<feOffset dy="4"/>
<feGaussianBlur stdDeviation="2"/>
<feComposite in2="hardAlpha" operator="out"/>
<feColorMatrix type="matrix" values="0 0 0 0 0 0 0 0 0 0 0 0 0 0 0 0 0 0 0.25 0"/>
<feBlend mode="normal" in2="BackgroundImageFix" result="effect1_dropShadow_35_148"/>
<feBlend mode="normal" in="SourceGraphic" in2="effect1_dropShadow_35_148" result="shape"/>
</filter>
</defs>
</svg>
