<svg width="58" height="58" viewBox="0 0 58 58" fill="none" xmlns="http://www.w3.org/2000/svg">
<g style="mix-blend-mode:screen">
<path d="M29 38.6667C31.5638 38.6667 34.0225 37.6482 35.8354 35.8354C37.6482 34.0225 38.6667 31.5638 38.6667 29C38.6667 26.4362 37.6482 23.9775 35.8354 22.1646C34.0225 20.3518 31.5638 19.3333 29 19.3333C26.4362 19.3333 23.9775 20.3518 22.1646 22.1646C20.3518 23.9775 19.3333 26.4362 19.3333 29C19.3333 31.5638 20.3518 34.0225 22.1646 35.8354C23.9775 37.6482 26.4362 38.6667 29 38.6667ZM29 43.5C32.8456 43.5 36.5338 41.9723 39.2531 39.2531C41.9723 36.5338 43.5 32.8456 43.5 29C43.5 25.1544 41.9723 21.4662 39.2531 18.747C36.5338 16.0277 32.8456 14.5 29 14.5C25.1544 14.5 21.4662 16.0277 18.747 18.747C16.0277 21.4662 14.5 25.1544 14.5 29C14.5 32.8456 16.0277 36.5338 18.747 39.2531C21.4662 41.9723 25.1544 43.5 29 43.5ZM26.5833 0H31.4167V9.8165C29.8119 9.61432 28.1881 9.61432 26.5833 9.8165V0ZM17.1438 13.7267L10.2032 6.786L6.786 10.2032L13.7267 17.1438C14.7183 15.8663 15.8663 14.7183 17.1438 13.7267ZM9.8165 26.5833H0V31.4167H9.8165C9.61432 29.8119 9.61432 28.1881 9.8165 26.5833ZM13.7267 40.8562L6.786 47.7968L10.2032 51.214L17.1438 44.2733C15.8663 43.2817 14.7183 42.1337 13.7267 40.8562ZM26.5833 48.1835V58H31.4167V48.1835C29.8119 48.3857 28.1881 48.3857 26.5833 48.1835ZM40.8562 44.2733L47.7968 51.214L51.214 47.7968L44.2733 40.8562C43.2817 42.1337 42.1337 43.2817 40.8562 44.2733ZM48.1835 31.4167H58V26.5833H48.1835C48.3857 28.1881 48.3857 29.8119 48.1835 31.4167ZM44.2733 17.1438L51.214 10.2032L47.7968 6.786L40.8562 13.7267C42.1322 14.7175 43.2801 15.8678 44.2733 17.1438Z" fill="#FFFA87"/>
<path d="M29 38.6667C31.5638 38.6667 34.0225 37.6482 35.8354 35.8354C37.6482 34.0225 38.6667 31.5638 38.6667 29C38.6667 26.4362 37.6482 23.9775 35.8354 22.1646C34.0225 20.3518 31.5638 19.3333 29 19.3333C26.4362 19.3333 23.9775 20.3518 22.1646 22.1646C20.3518 23.9775 19.3333 26.4362 19.3333 29C19.3333 31.5638 20.3518 34.0225 22.1646 35.8354C23.9775 37.6482 26.4362 38.6667 29 38.6667ZM29 43.5C32.8456 43.5 36.5338 41.9723 39.2531 39.2531C41.9723 36.5338 43.5 32.8456 43.5 29C43.5 25.1544 41.9723 21.4662 39.2531 18.747C36.5338 16.0277 32.8456 14.5 29 14.5C25.1544 14.5 21.4662 16.0277 18.747 18.747C16.0277 21.4662 14.5 25.1544 14.5 29C14.5 32.8456 16.0277 36.5338 18.747 39.2531C21.4662 41.9723 25.1544 43.5 29 43.5ZM26.5833 0H31.4167V9.8165C29.8119 9.61432 28.1881 9.61432 26.5833 9.8165V0ZM17.1438 13.7267L10.2032 6.786L6.786 10.2032L13.7267 17.1438C14.7183 15.8663 15.8663 14.7183 17.1438 13.7267ZM9.8165 26.5833H0V31.4167H9.8165C9.61432 29.8119 9.61432 28.1881 9.8165 26.5833ZM13.7267 40.8562L6.786 47.7968L10.2032 51.214L17.1438 44.2733C15.8663 43.2817 14.7183 42.1337 13.7267 40.8562ZM26.5833 48.1835V58H31.4167V48.1835C29.8119 48.3857 28.1881 48.3857 26.5833 48.1835ZM40.8562 44.2733L47.7968 51.214L51.214 47.7968L44.2733 40.8562C43.2817 42.1337 42.1337 43.2817 40.8562 44.2733ZM48.1835 31.4167H58V26.5833H48.1835C48.3857 28.1881 48.3857 29.8119 48.1835 31.4167ZM44.2733 17.1438L51.214 10.2032L47.7968 6.786L40.8562 13.7267C42.1322 14.7175 43.2801 15.8678 44.2733 17.1438Z" stroke="#F2BF5E"/>
</g>
</svg>
