<svg width="35" height="31" viewBox="0 0 35 31" fill="none" xmlns="http://www.w3.org/2000/svg">
<g style="mix-blend-mode:luminosity" filter="url(#filter0_d_35_146)">
<path d="M22.0431 1.76352C23.4367 1.76352 24.6948 2.35974 25.581 3.31696C26.6836 3.09386 27.723 2.68734 28.6569 2.1243C28.2956 3.27157 27.5269 4.23405 26.5273 4.84294C27.5055 4.72257 28.4419 4.45979 29.3109 4.06694C28.6595 5.05193 27.8394 5.9192 26.8924 6.61231C26.9013 6.82262 26.9063 7.03514 26.9063 7.24675C26.9063 13.7427 22.0309 21.235 13.1157 21.235C10.3793 21.235 7.83046 20.4185 5.68686 19.0243C6.07035 19.0709 6.4561 19.0942 6.84216 19.0939C9.1127 19.0939 11.2036 18.3087 12.8627 16.9886C10.7406 16.9507 8.94949 15.5279 8.33516 13.576C8.63604 13.6349 8.94149 13.6646 9.24759 13.6646C9.68821 13.6646 10.1174 13.6051 10.5231 13.4922C8.30607 13.042 6.63511 11.0548 6.63511 8.67168V8.60866C7.28907 8.97726 8.0358 9.19859 8.83143 9.22417C7.53025 8.34144 6.67474 6.83885 6.67474 5.13295C6.67474 4.23129 6.91426 3.38651 7.33126 2.66298C9.72112 5.63558 13.2924 7.59322 17.3212 7.79912C17.2381 7.4402 17.1951 7.06104 17.1951 6.67966C17.1951 3.9641 19.3653 1.76352 22.0431 1.76352ZM22.0431 0C18.7315 0 15.9879 2.52996 15.5654 5.79886C12.856 5.22965 10.3919 3.72967 8.62143 1.5291C8.46315 1.33223 8.26561 1.17394 8.04265 1.06534C7.8197 0.956732 7.57672 0.900434 7.33076 0.900391C7.28659 0.900396 7.24244 0.902161 7.19839 0.905681C6.93106 0.928058 6.67265 1.01667 6.44456 1.16418C6.21646 1.31169 6.02523 1.51387 5.88667 1.75399C5.29871 2.77421 4.98804 3.94283 4.98812 5.134C4.98812 5.92895 5.12471 6.70319 5.38362 7.42716C5.10787 7.7477 4.94891 8.16701 4.94891 8.60968V8.67273C4.94891 10.4002 5.60203 12.0034 6.68649 13.2048C6.62409 13.5073 6.63801 13.8239 6.7333 14.1272C7.10732 15.3172 7.78827 16.3428 8.67118 17.124C8.07833 17.262 7.46656 17.3317 6.84208 17.3317C6.51194 17.3317 6.19064 17.3127 5.88664 17.2739C5.81918 17.2651 5.75256 17.262 5.68552 17.262C4.97716 17.262 4.33416 17.7289 4.09551 18.441C3.83367 19.2214 4.12421 20.0865 4.79543 20.5234C7.28652 22.1442 10.1638 23 13.1153 23C22.7084 23 28.479 15.147 28.5912 7.47605C29.3784 6.79501 30.0738 6.00567 30.6585 5.12953C30.8805 4.82466 31.0005 4.45191 31 4.06871C31 3.46863 30.7129 2.93822 30.2756 2.61941C30.465 1.94085 30.2491 1.2063 29.722 0.757454C29.4142 0.495554 29.0368 0.362399 28.6574 0.362399C28.3616 0.362109 28.071 0.44348 27.8149 0.598285C27.2575 0.934285 26.6613 1.20015 26.0335 1.39154C24.8976 0.497813 23.4893 2.75568e-05 22.0431 0Z" fill="white"/>
</g>
<defs>
<filter id="filter0_d_35_146" x="0" y="0" width="35" height="31" filterUnits="userSpaceOnUse" color-interpolation-filters="sRGB">
<feFlood flood-opacity="0" result="BackgroundImageFix"/>
<feColorMatrix in="SourceAlpha" type="matrix" values="0 0 0 0 0 0 0 0 0 0 0 0 0 0 0 0 0 0 127 0" result="hardAlpha"/>
<feOffset dy="4"/>
<feGaussianBlur stdDeviation="2"/>
<feComposite in2="hardAlpha" operator="out"/>
<feColorMatrix type="matrix" values="0 0 0 0 0 0 0 0 0 0 0 0 0 0 0 0 0 0 0.25 0"/>
<feBlend mode="normal" in2="BackgroundImageFix" result="effect1_dropShadow_35_146"/>
<feBlend mode="normal" in="SourceGraphic" in2="effect1_dropShadow_35_146" result="shape"/>
</filter>
</defs>
</svg>
